{
  "accessors": [
    {
      "bufferView": 2,
      "componentType": 5126,
      "count": 9344,
      "max": [
        8.06406307220459,
        2.698256015777588,
        5.727518081665039
      ],
      "min": [
        -7.619741916656494,
        -2.698256015777588,
        0.948436975479126
      ],
      "type": "VEC3"
    },
    {
      "bufferView": 2,
      "byteOffset": 112128,
      "componentType": 5126,
      "count": 9344,
      "max": [
        0.9999863505363464,
        1.0,
        0.9999828934669495
      ],
      "min": [
        -0.9997228980064392,
        -1.0,
        -0.9999843835830688
      ],
      "type": "VEC3"
    },
    {
      "bufferView": 1,
      "componentType": 5126,
      "count": 9344,
      "max": [
        0.9907450079917908,
        0.9949399828910828
      ],
      "min": [
        0.0009749999735504389,
        0.0009759999811649323
      ],
      "type": "VEC2"
    },
    {
      "bufferView": 0,
      "componentType": 5125,
      "count": 49212,
      "type": "SCALAR"
    },
    {
      "bufferView": 2,
      "byteOffset": 224256,
      "componentType": 5126,
      "count": 6131,
      "max": [
        7.8015570640563965,
        3.3394649028778076,
        5.85453987121582
      ],
      "min": [
        -6.076062202453613,
        -3.4287021160125732,
        1.3156039714813232
      ],
      "type": "VEC3"
    },
    {
      "bufferView": 2,
      "byteOffset": 297828,
      "componentType": 5126,
      "count": 6131,
      "max": [
        0.9999903440475464,
        1.0,
        0.9999996423721313
      ],
      "min": [
        -0.999853253364563,
        -1.0,
        -0.9997077584266663
      ],
      "type": "VEC3"
    },
    {
      "bufferView": 1,
      "byteOffset": 74752,
      "componentType": 5126,
      "count": 6131,
      "max": [
        0.9974640011787415,
        0.9918969869613647
      ],
      "min": [
        0.0036929999478161335,
        0.004248000215739012
      ],
      "type": "VEC2"
    },
    {
      "bufferView": 0,
      "byteOffset": 196848,
      "componentType": 5125,
      "count": 33780,
      "type": "SCALAR"
    },
    {
      "bufferView": 2,
      "byteOffset": 371400,
      "componentType": 5126,
      "count": 24599,
      "max": [
        6.825374126434326,
        3.490367889404297,
        5.721776008605957
      ],
      "min": [
        -7.972029209136963,
        -3.490367889404297,
        0.640978991985321
      ],
      "type": "VEC3"
    },
    {
      "bufferView": 2,
      "byteOffset": 666588,
      "componentType": 5126,
      "count": 24599,
      "max": [
        0.9999993443489075,
        1.0,
        0.9999863505363464
      ],
      "min": [
        -0.9999924898147583,
        -1.0,
        -0.9999956488609314
      ],
      "type": "VEC3"
    },
    {
      "bufferView": 1,
      "byteOffset": 123800,
      "componentType": 5126,
      "count": 24599,
      "max": [
        0.9891020059585571,
        0.991457998752594
      ],
      "min": [
        0.0028959999326616526,
        0.0028959999326616526
      ],
      "type": "VEC2"
    },
    {
      "bufferView": 0,
      "byteOffset": 331968,
      "componentType": 5125,
      "count": 139632,
      "type": "SCALAR"
    },
    {
      "bufferView": 2,
      "byteOffset": 961776,
      "componentType": 5126,
      "count": 9988,
      "max": [
        7.031807899475098,
        2.1142499446868896,
        5.60162878036499
      ],
      "min": [
        -11.689957618713379,
        -12.640105247497559,
        -0.013550999574363232
      ],
      "type": "VEC3"
    },
    {
      "bufferView": 2,
      "byteOffset": 1081632,
      "componentType": 5126,
      "count": 9988,
      "max": [
        0.9998811483383179,
        1.0,
        0.9999756217002869
      ],
      "min": [
        -0.9999765157699585,
        -1.0,
        -0.9999648928642273
      ],
      "type": "VEC3"
    },
    {
      "bufferView": 1,
      "byteOffset": 320592,
      "componentType": 5126,
      "count": 9988,
      "max": [
        0.9975939989089966,
        0.9954270124435425
      ],
      "min": [
        0.0009759999811649323,
        0.002004999900236726
      ],
      "type": "VEC2"
    },
    {
      "bufferView": 0,
      "byteOffset": 890496,
      "componentType": 5125,
      "count": 54588,
      "type": "SCALAR"
    },
    {
      "bufferView": 2,
      "byteOffset": 1201488,
      "componentType": 5126,
      "count": 9823,
      "max": [
        7.281339168548584,
        14.856136322021484,
        7.232405185699463
      ],
      "min": [
        -6.940495014190674,
        -8.781753540039063,
        0.01599700003862381
      ],
      "type": "VEC3"
    },
    {
      "bufferView": 2,
      "byteOffset": 1319364,
      "componentType": 5126,
      "count": 9823,
      "max": [
        0.9998812675476074,
        0.9999983310699463,
        0.9999774694442749
      ],
      "min": [
        -0.999983549118042,
        -0.9999983310699463,
        -0.9999708533287048
      ],
      "type": "VEC3"
    },
    {
      "bufferView": 1,
      "byteOffset": 400496,
      "componentType": 5126,
      "count": 9823,
      "max": [
        0.9965760111808777,
        0.9939979910850525
      ],
      "min": [
        0.0009759999811649323,
        0.006062000058591366
      ],
      "type": "VEC2"
    },
    {
      "bufferView": 0,
      "byteOffset": 1108848,
      "componentType": 5125,
      "count": 53028,
      "type": "SCALAR"
    },
    {
      "bufferView": 2,
      "byteOffset": 1437240,
      "componentType": 5126,
      "count": 7490,
      "max": [
        7.047895908355713,
        8.175703048706055,
        7.232405185699463
      ],
      "min": [
        -7.563889026641846,
        -14.856136322021484,
        -0.013550999574363232
      ],
      "type": "VEC3"
    },
    {
      "bufferView": 2,
      "byteOffset": 1527120,
      "componentType": 5126,
      "count": 7490,
      "max": [
        0.9995614886283875,
        0.9958310127258301,
        0.9999757409095764
      ],
      "min": [
        -0.9999606609344482,
        -0.9987297654151917,
        -0.9999798536300659
      ],
      "type": "VEC3"
    },
    {
      "bufferView": 1,
      "byteOffset": 479080,
      "componentType": 5126,
      "count": 7490,
      "max": [
        0.9975939989089966,
        0.9658870100975037
      ],
      "min": [
        0.0009759999811649323,
        0.002004999900236726
      ],
      "type": "VEC2"
    },
    {
      "bufferView": 0,
      "byteOffset": 1320960,
      "componentType": 5125,
      "count": 41448,
      "type": "SCALAR"
    },
    {
      "bufferView": 2,
      "byteOffset": 1617000,
      "componentType": 5126,
      "count": 7244,
      "max": [
        7.047895908355713,
        12.640104293823242,
        6.245571136474609
      ],
      "min": [
        -11.689956665039063,
        -8.694904327392578,
        2.4344000816345215
      ],
      "type": "VEC3"
    },
    {
      "bufferView": 2,
      "byteOffset": 1703928,
      "componentType": 5126,
      "count": 7244,
      "max": [
        0.9997938871383667,
        0.9999998807907104,
        0.9999774694442749
      ],
      "min": [
        -0.9995423555374146,
        -0.999967634677887,
        -0.9999798536300659
      ],
      "type": "VEC3"
    },
    {
      "bufferView": 1,
      "byteOffset": 539000,
      "componentType": 5126,
      "count": 7244,
      "max": [
        0.9974120259284973,
        0.9658870100975037
      ],
      "min": [
        0.006564000155776739,
        0.0063760001212358475
      ],
      "type": "VEC2"
    },
    {
      "bufferView": 0,
      "byteOffset": 1486752,
      "componentType": 5125,
      "count": 39816,
      "type": "SCALAR"
    },
    {
      "bufferView": 2,
      "byteOffset": 1790856,
      "componentType": 5126,
      "count": 1961,
      "max": [
        7.6796979904174805,
        2.397969961166382,
        5.251904010772705
      ],
      "min": [
        -7.8509979248046875,
        -2.397969961166382,
        0.9311079978942871
      ],
      "type": "VEC3"
    },
    {
      "bufferView": 2,
      "byteOffset": 1814388,
      "componentType": 5126,
      "count": 1961,
      "max": [
        0.9968822598457336,
        0.9239222407341003,
        0.9999752640724182
      ],
      "min": [
        -0.9968854784965515,
        -0.9239234328269958,
        -0.9999751448631287
      ],
      "type": "VEC3"
    },
    {
      "bufferView": 1,
      "byteOffset": 596952,
      "componentType": 5126,
      "count": 1961,
      "max": [
        0.9404799938201904,
        0.981266975402832
      ],
      "min": [
        0.009046000428497791,
        0.0065899998880922794
      ],
      "type": "VEC2"
    },
    {
      "bufferView": 0,
      "byteOffset": 1646016,
      "componentType": 5125,
      "count": 4224,
      "type": "SCALAR"
    }
  ],
  "asset": {
    "extras": {
      "author": "apd1992 (https://sketchfab.com/apd1992)",
      "license": "CC-BY-4.0 (http://creativecommons.org/licenses/by/4.0/)",
      "source": "https://sketchfab.com/3d-models/dji-mavic-air-drone-4f95cb46814f43859b80172c9f712cd7",
      "title": "DJI Mavic Air Drone"
    },
    "generator": "Sketchfab-12.68.0",
    "version": "2.0"
  },
  "bufferViews": [
    {
      "buffer": 0,
      "byteLength": 1662912,
      "name": "floatBufferViews",
      "target": 34963
    },
    {
      "buffer": 0,
      "byteLength": 612640,
      "byteOffset": 1662912,
      "byteStride": 8,
      "name": "floatBufferViews",
      "target": 34962
    },
    {
      "buffer": 0,
      "byteLength": 1837920,
      "byteOffset": 2275552,
      "byteStride": 12,
      "name": "floatBufferViews",
      "target": 34962
    }
  ],
  "buffers": [
    {
      "byteLength": 4113472,
      "uri": "scene.bin"
    }
  ],
  "materials": [
    {
      "doubleSided": true,
      "name": "initialShadingGroup",
      "pbrMetallicRoughness": {
        "metallicFactor": 0.0,
        "roughnessFactor": 0.6
      }
    },
    {
      "doubleSided": true,
      "name": "lambert17SG",
      "pbrMetallicRoughness": {
        "metallicFactor": 0.0,
        "roughnessFactor": 0.6
      }
    }
  ],
  "meshes": [
    {
      "name": "Object_0",
      "primitives": [
        {
          "attributes": {
            "NORMAL": 1,
            "POSITION": 0,
            "TEXCOORD_0": 2
          },
          "indices": 3,
          "material": 0,
          "mode": 4
        }
      ]
    },
    {
      "name": "Object_1",
      "primitives": [
        {
          "attributes": {
            "NORMAL": 5,
            "POSITION": 4,
            "TEXCOORD_0": 6
          },
          "indices": 7,
          "material": 0,
          "mode": 4
        }
      ]
    },
    {
      "name": "Object_2",
      "primitives": [
        {
          "attributes": {
            "NORMAL": 9,
            "POSITION": 8,
            "TEXCOORD_0": 10
          },
          "indices": 11,
          "material": 0,
          "mode": 4
        }
      ]
    },
    {
      "name": "Object_3",
      "primitives": [
        {
          "attributes": {
            "NORMAL": 13,
            "POSITION": 12,
            "TEXCOORD_0": 14
          },
          "indices": 15,
          "material": 0,
          "mode": 4
        }
      ]
    },
    {
      "name": "Object_4",
      "primitives": [
        {
          "attributes": {
            "NORMAL": 17,
            "POSITION": 16,
            "TEXCOORD_0": 18
          },
          "indices": 19,
          "material": 0,
          "mode": 4
        }
      ]
    },
    {
      "name": "Object_5",
      "primitives": [
        {
          "attributes": {
            "NORMAL": 21,
            "POSITION": 20,
            "TEXCOORD_0": 22
          },
          "indices": 23,
          "material": 0,
          "mode": 4
        }
      ]
    },
    {
      "name": "Object_6",
      "primitives": [
        {
          "attributes": {
            "NORMAL": 25,
            "POSITION": 24,
            "TEXCOORD_0": 26
          },
          "indices": 27,
          "material": 0,
          "mode": 4
        }
      ]
    },
    {
      "name": "Object_7",
      "primitives": [
        {
          "attributes": {
            "NORMAL": 29,
            "POSITION": 28,
            "TEXCOORD_0": 30
          },
          "indices": 31,
          "material": 1,
          "mode": 4
        }
      ]
    }
  ],
  "nodes": [
    {
      "children": [
        1
      ],
      "matrix": [
        1.0,
        0.0,
        0.0,
        0.0,
        0.0,
        2.220446049250313e-16,
        -1.0,
        0.0,
        0.0,
        1.0,
        2.220446049250313e-16,
        0.0,
        0.0,
        0.0,
        0.0,
        1.0
      ],
      "name": "Sketchfab_model"
    },
    {
      "children": [
        2,
        3,
        4,
        5,
        6,
        7,
        8,
        9
      ],
      "name": "DJI_mavic_air_drone.obj.cleaner.materialmerger.gles"
    },
    {
      "mesh": 0,
      "name": "Object_2"
    },
    {
      "mesh": 1,
      "name": "Object_3"
    },
    {
      "mesh": 2,
      "name": "Object_4"
    },
    {
      "mesh": 3,
      "name": "Object_5"
    },
    {
      "mesh": 4,
      "name": "Object_6"
    },
    {
      "mesh": 5,
      "name": "Object_7"
    },
    {
      "mesh": 6,
      "name": "Object_8"
    },
    {
      "mesh": 7,
      "name": "Object_9"
    }
  ],
  "scene": 0,
  "scenes": [
    {
      "name": "Sketchfab_Scene",
      "nodes": [
        0
      ]
    }
  ]
}
